Coordinates
version=1
nRows=9
nColumns=24
inDegrees=yes

Units are S.I. units (second, meters, Newtons, ...)
Angles are in degrees.

endheader
time	pelvis_tilt	pelvis_list	pelvis_rotation	pelvis_tx	pelvis_ty	pelvis_tz	hip_flexion_r	hip_adduction_r	hip_rotation_r	knee_angle_r	ankle_angle_r	subtalar_angle_r	mtp_angle_r	hip_flexion_l	hip_adduction_l	hip_rotation_l	knee_angle_l	ankle_angle_l	subtalar_angle_l	mtp_angle_l	lumbar_extension	lumbar_bending	lumbar_rotation
      4.10000000	      6.17913402	      6.24860162	      3.61787822	     -2.62453408	      0.71386732	      0.21217102	     17.65927403	     -6.46187395	      9.26538931	     -0.27221497	      6.06999082	    -15.68545851	      0.00000000	    -26.17888989	      5.06701057	      6.34737206	    -13.80408455	     14.89341004	    -14.23540705	      0.00000000	    -30.84634374	     -4.17364402	    -16.87979773
      4.11000000	      6.64089048	      5.03753706	      3.61709645	     -2.61004980	      0.71308731	      0.21463471	     17.86099672	     -4.75354486	      9.12431127	     -3.00578756	      3.84230211	    -17.53199656	      0.00000000	    -26.30007171	      3.59818558	      5.73106851	    -16.36511178	     13.93378700	    -14.05055567	      0.00000000	    -31.35745668	     -2.79024252	    -16.11521808
      4.12000000	      6.89389900	      3.79180789	      3.34944434	     -2.59570302	      0.71258024	      0.21729325	     18.56777998	     -2.91498417	      8.41721509	     -6.38678510	      2.31614408	    -18.08158169	      0.00000000	    -25.80294911	      2.29915785	      4.84719035	    -19.53890046	     12.20132594	    -14.48881158	      0.00000000	    -31.68106815	     -1.48502962	    -15.16987537
      4.13000000	      7.11442636	      2.53229546	      2.92789559	     -2.58139400	      0.71249972	      0.21999324	     19.28166164	     -1.06074285	      7.70464875	     -9.86878335	      1.17699322	    -18.42042619	      0.00000000	    -24.91310918	      1.05756228	      3.63261851	    -23.23516377	      9.83975935	    -14.86964937	      0.00000000	    -32.00753201	     -0.20963960	    -14.15379916
      4.14000000	      7.17127884	      1.34930058	      2.44407450	     -2.56718277	      0.71262484	      0.22260522	     20.04513730	      0.66839998	      6.98802209	    -13.21929922	      0.67669677	    -18.45493888	      0.00000000	    -23.46467470	     -0.09480275	      2.29665302	    -27.45437877	      6.84580977	    -15.35666971	      0.00000000	    -32.17859558	      0.97145023	    -13.22370003
      4.15000000	      7.16087747	      0.35805745	      1.97957896	     -2.55310440	      0.71311029	      0.22496429	     20.60757046	      2.08927447	      6.07086808	    -16.11914966	      1.08221842	    -17.70973856	      0.00000000	    -21.67557683	     -1.03493875	      1.28656384	    -31.91833131	      2.64882402	    -16.45773065	      0.00000000	    -32.30562053	      1.98610406	    -12.41897600
      4.16000000	      7.08576938	     -0.54949384	      1.62211021	     -2.53917829	      0.71388646	      0.22716248	     20.77591010	      3.39862838	      5.65977372	    -18.24782938	      1.39375127	    -17.80545411	      0.00000000	    -19.51553668	     -1.99420302	      0.39583118	    -36.60995134	     -2.07362157	    -17.45155644	      0.00000000	    -32.36004874	      2.94632217	    -11.78888843
      4.17000000	      6.99730752	     -1.35271264	      1.47219949	     -2.52543546	      0.71501906	      0.22909657	     20.54856237	      4.52980331	      5.32857033	    -19.66580449	      2.02783098	    -18.06760801	      0.00000000	    -17.09561154	     -2.92907181	     -0.08864232	    -41.35625307	     -7.27193800	    -18.38148437	      0.00000000	    -32.38691411	      3.86787930	    -11.36518667
      4.18000000	      6.97019651	     -1.99240873	      1.42637083	     -2.51190676	      0.71656530	      0.23090555	     19.94991435	      5.46556256	      5.09260175	    -20.54463483	      2.95818990	    -18.27551938	      0.00000000	    -14.58482632	     -3.72470023	     -0.28771409	    -45.95306679	    -12.71524880	    -19.19643485	      0.00000000	    -32.47054596	      4.61335393	    -11.02160378
